<?xml version="1.0" encoding="UTF-8"?>
<svg width="19px" height="14px" viewBox="0 0 19 14" version="1.1" xmlns="http://www.w3.org/2000/svg" xmlns:xlink="http://www.w3.org/1999/xlink">
    <!-- Generator: Sketch 42 (36781) - http://www.bohemiancoding.com/sketch -->
    <title>email</title>
    <desc>Created with Sketch.</desc>
    <defs></defs>
    <g id="Page-1" stroke="none" stroke-width="1" fill="none" fill-rule="evenodd">
        <path d="M18.6666667,1.16666667 L9.33333333,8.16666667 L0,1.16666667 C0,0.844616445 0.113931152,0.569662598 0.341796875,0.341796875 C0.569662598,0.113931152 0.844616445,0 1.16666667,0 L17.5,0 C17.8220502,0 18.0970041,0.113931152 18.3248698,0.341796875 C18.5527355,0.569662598 18.6666667,0.844616445 18.6666667,1.16666667 Z M0,3.26302083 L9.33333333,10.2630208 L18.6666667,3.26302083 L18.6666667,12.8333333 C18.6666667,13.1553836 18.5527355,13.4303374 18.3248698,13.6582031 C18.0970041,13.8860688 17.8220502,14 17.5,14 L1.16666667,14 C0.844616445,14 0.569662598,13.8860688 0.341796875,13.6582031 C0.113931152,13.4303374 0,13.1553836 0,12.8333333 L0,3.26302083 Z" id="email" fill="#222222"></path>
    </g>
</svg>