<?xml version="1.0" encoding="UTF-8"?>
<svg width="10px" height="20px" viewBox="0 0 10 20" version="1.1" xmlns="http://www.w3.org/2000/svg" xmlns:xlink="http://www.w3.org/1999/xlink">
    <!-- Generator: Sketch 42 (36781) - http://www.bohemiancoding.com/sketch -->
    <title>facebook</title>
    <desc>Created with Sketch.</desc>
    <defs></defs>
    <g id="Page-1" stroke="none" stroke-width="1" fill="none" fill-rule="evenodd">
        <g id="Group" fill="#191E22">
            <path d="M2.41071429,19.5121951 L2.41071429,10.5659299 L0,10.5659299 L0,7.31707317 L2.41071429,7.31707317 L2.41071429,4.4683689 C2.41071429,3.87766473 2.50488187,3.32031512 2.69321987,2.79630335 C2.88155786,2.27229159 3.16406062,1.79910018 3.54073661,1.37671494 C3.9174126,0.954329697 4.42277864,0.619284775 5.05684989,0.371570122 C5.69092114,0.123855469 6.41601154,0 7.23214286,0 C7.63393058,0 8.03571228,0.0158789062 8.4375,0.0476371951 C8.83928772,0.079395484 9.140624,0.107977515 9.34151786,0.133384146 L9.64285714,0.181021341 L9.51102121,3.24885671 L7.42989676,3.24885671 C6.86488278,3.24885671 6.4897819,3.38382741 6.30458287,3.65377287 C6.11938384,3.92371832 6.02678571,4.33180621 6.02678571,4.87804878 L6.02678571,7.31707317 L9.64285714,7.31707317 L9.39801897,10.5659299 L6.02678571,10.5659299 L6.02678571,19.5121951 L2.41071429,19.5121951 Z" id="facebook"></path>
        </g>
    </g>
</svg>