<?xml version="1.0" encoding="UTF-8"?>
<svg width="20px" height="18px" viewBox="0 0 20 18" version="1.1" xmlns="http://www.w3.org/2000/svg" xmlns:xlink="http://www.w3.org/1999/xlink">
    <!-- Generator: Sketch 42 (36781) - http://www.bohemiancoding.com/sketch -->
    <title>googleplus</title>
    <desc>Created with Sketch.</desc>
    <defs></defs>
    <g id="Page-1" stroke="none" stroke-width="1" fill="none" fill-rule="evenodd">
        <g id="Group" transform="translate(-115.000000, -1.000000)" fill="#191E22">
            <path d="M124.085868,11.1089939 C124.738773,11.5917199 125.195486,12.0807902 125.45602,12.5762195 C125.716554,13.0716488 125.846819,13.6909262 125.846819,14.4340701 C125.846819,14.9040928 125.735388,15.3566416 125.512521,15.7917302 C125.289654,16.2268187 124.975762,16.6174398 124.570836,16.9636052 C124.165909,17.3097705 123.643279,17.5876514 123.00293,17.7972561 C122.362581,18.0068608 121.653185,18.1116616 120.874721,18.1116616 C119.939309,18.1116616 119.082384,17.9925698 118.30392,17.7543826 C117.525456,17.5161955 116.899242,17.1652716 116.425258,16.7016006 C115.951274,16.2379296 115.714286,15.7075741 115.714286,15.1105183 C115.714286,14.151418 116.199249,13.2971328 117.169189,12.5476372 C118.13913,11.7981416 119.305239,11.4233994 120.66755,11.4233994 L121.543318,11.4233994 C121.097584,10.985135 120.874721,10.5182952 120.874721,10.0228659 C120.874721,9.67352468 120.956333,9.35277077 121.119559,9.06059451 C121.012834,9.07329783 120.855888,9.07964939 120.648717,9.07964939 C119.518689,9.07964939 118.595846,8.72396189 117.880162,8.01257622 C117.164477,7.30119055 116.806641,6.42149914 116.806641,5.37347561 C116.806641,4.71925486 117.013809,4.10156541 117.428153,3.52038872 C117.842496,2.93921203 118.388668,2.47872375 119.066685,2.13891006 C119.744702,1.79909637 120.457237,1.62919207 121.204311,1.62919207 L126.251744,1.62919207 L125.112305,2.45807927 L123.502023,2.45807927 C124.016813,2.65498066 124.417026,3.02495917 124.702672,3.56802591 C124.988318,4.11109265 125.131138,4.72243054 125.131138,5.40205793 C125.131138,6.43737814 124.657162,7.32342111 123.709194,8.06021341 C123.313684,8.38414796 123.054723,8.63979835 122.932303,8.82717226 C122.809884,9.01454616 122.748675,9.24796608 122.748675,9.52743902 C122.748675,9.74339539 122.897773,10.0117489 123.195975,10.3325076 C123.494177,10.6532663 123.790805,10.9120925 124.085868,11.1089939 Z M121.383231,8.55564024 C122.029858,8.58104688 122.543071,8.29522656 122.922886,7.69817073 C123.302701,7.1011149 123.436105,6.37068521 123.323103,5.50685976 C123.216378,4.6430343 122.893069,3.90625305 122.353167,3.2964939 C121.813265,2.68673476 121.213731,2.37233241 120.554548,2.35327744 C119.907921,2.32787081 119.394708,2.60733956 119.014893,3.19169207 C118.635078,3.77604459 118.501674,4.49694693 118.614676,5.35442073 C118.727679,6.21824619 119.055696,6.96296689 119.598737,7.58860518 C120.141779,8.21424347 120.736604,8.53658527 121.383231,8.55564024 Z M135,4.4683689 L135,5.28772866 L131.788853,5.28772866 L131.788853,8.53658537 L130.979004,8.53658537 L130.979004,5.28772866 L127.767857,5.28772866 L127.767857,4.4683689 L130.979004,4.4683689 L130.979004,1.2195122 L131.788853,1.2195122 L131.788853,4.4683689 L135,4.4683689 Z M120.874721,17.3018293 C122.155419,17.3018293 123.08454,17.058882 123.662109,16.5729802 C124.239679,16.0870784 124.52846,15.4408069 124.52846,14.6341463 C124.52846,14.5261682 124.515904,14.3515002 124.490792,14.1101372 C124.453125,13.9767524 124.395055,13.8449575 124.316581,13.7147485 C124.238106,13.5845395 124.16905,13.4781508 124.10941,13.3955793 C124.04977,13.3130077 123.935199,13.2034433 123.765695,13.0668826 C123.596191,12.930322 123.478481,12.8366364 123.412563,12.7858232 C123.346644,12.7350099 123.189699,12.6222697 122.94172,12.4475991 C122.693742,12.2729285 122.532087,12.1601883 122.456752,12.109375 C122.092632,12.0013968 121.675156,11.9315296 121.204311,11.8997713 C120.563962,11.8997713 119.962859,12.0188631 119.400984,12.2570503 C118.839109,12.4952375 118.388674,12.820755 118.049665,13.2336128 C117.710657,13.6464706 117.541155,14.0910799 117.541155,14.5674543 C117.541155,15.3233015 117.856617,15.9679851 118.487549,16.5015244 C119.118481,17.0350636 119.914197,17.3018293 120.874721,17.3018293 Z" id="googleplus"></path>
        </g>
    </g>
</svg>