<?xml version="1.0" encoding="UTF-8"?>
<svg width="20px" height="20px" viewBox="0 0 20 20" version="1.1" xmlns="http://www.w3.org/2000/svg" xmlns:xlink="http://www.w3.org/1999/xlink">
    <!-- Generator: Sketch 42 (36781) - http://www.bohemiancoding.com/sketch -->
    <title>instagram</title>
    <desc>Created with Sketch.</desc>
    <defs></defs>
    <g id="Page-1" stroke="none" stroke-width="1" fill="none" fill-rule="evenodd">
        <g id="Group" transform="translate(-67.000000, 0.000000)" fill="#191E22">
            <path d="M83.9700753,0 C84.748539,0 85.4124205,0.277880859 85.9617397,0.833650915 C86.5110588,1.38942097 86.7857143,2.0610987 86.7857143,2.84870427 L86.7857143,16.6634909 C86.7857143,17.4510964 86.5110588,18.1227742 85.9617397,18.6785442 C85.4124205,19.2343143 84.748539,19.5121951 83.9700753,19.5121951 L70.315639,19.5121951 C69.5371752,19.5121951 68.8732938,19.2343143 68.3239746,18.6785442 C67.7746555,18.1227742 67.5,17.4510964 67.5,16.6634909 L67.5,2.84870427 C67.5,2.0610987 67.7746555,1.38942097 68.3239746,0.833650915 C68.8732938,0.277880859 69.5371752,0 70.315639,0 L83.9700753,0 Z M77.1428571,6.09756098 C76.1446658,6.09756098 75.2924491,6.45483637 74.5861816,7.16939787 C73.8799142,7.88395937 73.5267857,8.74618397 73.5267857,9.75609756 C73.5267857,10.7660111 73.8799142,11.6282358 74.5861816,12.3427973 C75.2924491,13.0573588 76.1446658,13.4146341 77.1428571,13.4146341 C78.1410485,13.4146341 78.9932652,13.0573588 79.6995326,12.3427973 C80.4058001,11.6282358 80.7589286,10.7660111 80.7589286,9.75609756 C80.7589286,8.74618397 80.4058001,7.88395937 79.6995326,7.16939787 C78.9932652,6.45483637 78.1410485,6.09756098 77.1428571,6.09756098 Z M84.7799247,17.0731707 L84.7799247,8.53658537 L82.6422991,8.53658537 C82.7239122,8.91133317 82.7647182,9.31783317 82.7647182,9.75609756 C82.7647182,10.7850661 82.5136046,11.7362126 82.01137,12.6095655 C81.5091353,13.4829185 80.8264203,14.1736509 79.9632045,14.6817835 C79.0999887,15.1899162 78.1598823,15.4439787 77.1428571,15.4439787 C76.125832,15.4439787 75.1857256,15.1899162 74.3225098,14.6817835 C73.459294,14.1736509 72.776579,13.4829185 72.2743443,12.6095655 C71.7721097,11.7362126 71.5209961,10.7850661 71.5209961,9.75609756 C71.5209961,9.31783317 71.561802,8.91133317 71.6434152,8.53658537 L69.5057896,8.53658537 L69.5057896,17.0731707 C69.5057896,17.1875006 69.5450261,17.2843619 69.6235003,17.3637576 C69.7019744,17.4431533 69.7977115,17.4828506 69.9107143,17.4828506 L84.375,17.4828506 C84.4880028,17.4828506 84.5837398,17.4431533 84.662214,17.3637576 C84.7406882,17.2843619 84.7799247,17.1875006 84.7799247,17.0731707 Z M84.7799247,4.87804878 L84.7799247,2.43902439 C84.7799247,2.32469455 84.7406882,2.22783322 84.662214,2.1484375 C84.5837398,2.06904178 84.4880028,2.02934451 84.375,2.02934451 L81.9642857,2.02934451 C81.8512829,2.02934451 81.7555459,2.06904178 81.6770717,2.1484375 C81.5985975,2.22783322 81.559361,2.32469455 81.559361,2.43902439 L81.559361,4.87804878 C81.559361,4.99237862 81.5985975,5.08923995 81.6770717,5.16863567 C81.7555459,5.24803139 81.8512829,5.28772866 81.9642857,5.28772866 L84.375,5.28772866 C84.4880028,5.28772866 84.5837398,5.24803139 84.662214,5.16863567 C84.7406882,5.08923995 84.7799247,4.99237862 84.7799247,4.87804878 Z" id="instagram"></path>
        </g>
    </g>
</svg>