<?xml version="1.0" encoding="UTF-8"?>
<svg width="16px" height="20px" viewBox="0 0 16 20" version="1.1" xmlns="http://www.w3.org/2000/svg" xmlns:xlink="http://www.w3.org/1999/xlink">
    <!-- Generator: Sketch 42 (36781) - http://www.bohemiancoding.com/sketch -->
    <title>pinterest</title>
    <desc>Created with Sketch.</desc>
    <defs></defs>
    <g id="Page-1" stroke="none" stroke-width="1" fill="none" fill-rule="evenodd">
        <g id="Group" transform="translate(-93.000000, 0.000000)" fill="#191E22">
            <path d="M101.692592,0 C102.722173,0 103.681113,0.17784375 104.569441,0.533536585 C105.457768,0.889229421 106.200123,1.36400872 106.796526,1.95788872 C107.39293,2.55176872 107.860629,3.23614958 108.199637,4.01105183 C108.538646,4.78595408 108.708147,5.58625095 108.708147,6.41196646 C108.708147,7.86649609 108.460173,9.17650586 107.964216,10.3420351 C107.468259,11.5075643 106.765141,12.4237772 105.854841,13.0907012 C104.944541,13.7576253 103.908697,14.0910823 102.74728,14.0910823 C102.157154,14.0910823 101.606273,13.9576995 101.094622,13.6909299 C100.58297,13.4241603 100.226703,13.1002306 100.025809,12.7191311 C99.6051876,14.4340787 99.3446573,15.4566803 99.2442104,15.7869665 C99.1060958,16.3141541 98.8691074,16.8826189 98.533238,17.492378 C98.1973686,18.1021372 97.928991,18.5467466 97.7280971,18.8262195 C97.5272032,19.1056925 97.3702573,19.3121182 97.2572545,19.445503 C97.207031,19.502668 97.1520999,19.5233105 97.0924595,19.5074314 C97.0328192,19.4915523 96.9967216,19.4550308 96.9841657,19.3978659 C96.9841657,19.3915142 96.9731795,19.3025923 96.9512068,19.1310976 C96.929234,18.9596028 96.908831,18.7801712 96.8899972,18.5927973 C96.8711634,18.4054234 96.8554688,18.1608882 96.8429129,17.8591845 C96.8303571,17.5574807 96.8256487,17.2668967 96.8287877,16.9874238 C96.8319266,16.7079508 96.8491907,16.3999001 96.8805804,16.0632622 C96.91197,15.7266243 96.9621927,15.4153978 97.03125,15.1295732 L98.434361,9.0320122 C98.2146334,8.5492862 98.1047712,7.95541511 98.1047712,7.2503811 C98.1047712,6.41831393 98.308801,5.72758151 98.7168666,5.17816311 C99.1249323,4.62874471 99.6271594,4.35403963 100.223563,4.35403963 C100.706964,4.35403963 101.077356,4.51124081 101.334752,4.82564787 C101.592147,5.14005493 101.720843,5.54179125 101.720843,6.0308689 C101.720843,6.32939682 101.665912,6.69461166 101.556048,7.12652439 C101.446184,7.55843712 101.301794,8.06179845 101.122872,8.63662348 C100.943951,9.2114485 100.813686,9.66717311 100.732073,10.003811 C100.600237,10.5945151 100.714807,11.104228 101.075788,11.5329649 C101.436769,11.9617018 101.912316,12.1760671 102.502441,12.1760671 C103.186736,12.1760671 103.797256,11.9029499 104.334019,11.3567073 C104.870783,10.8104647 105.28355,10.0863866 105.572335,9.18445122 C105.86112,8.28251582 106.005511,7.29167207 106.005511,6.21189024 C106.005511,4.94155869 105.60059,3.90784189 104.790737,3.11070884 C103.980883,2.31357579 102.854011,1.91501524 101.410086,1.91501524 C100.593955,1.91501524 99.8374756,2.06110118 99.140625,2.35327744 C98.4437744,2.6454537 97.8646438,3.03925057 97.4032157,3.53467988 C96.9417876,4.03010918 96.5823813,4.60016192 96.324986,5.24485518 C96.0675908,5.88954845 95.9388951,6.56440196 95.9388951,7.26943598 C95.9388951,8.14596475 96.1837308,8.88592178 96.6734096,9.48932927 C96.7738565,9.61636242 96.833496,9.71481164 96.8523298,9.78467988 C96.8711636,9.85454811 96.8648858,9.95934889 96.8334961,10.0990854 C96.8146623,10.2007119 96.7393282,10.4992353 96.6074916,10.9946646 C96.576102,11.1407528 96.5101847,11.239202 96.4097377,11.2900152 C96.3092908,11.3408285 96.1900119,11.3408285 96.0518973,11.2900152 C95.3111012,10.9724324 94.7492346,10.4293738 94.3662807,9.66082317 C93.9833268,8.89227258 93.7918527,8.00622961 93.7918527,7.00266768 C93.7918527,6.35479859 93.895437,5.70535132 94.1026088,5.0543064 C94.3097806,4.40326148 94.6299504,3.7728689 95.0631278,3.16310976 C95.4963052,2.55335061 96.0173658,2.01505569 96.6263253,1.54820884 C97.2352849,1.081362 97.9776393,0.706619808 98.853411,0.423971037 C99.7291827,0.141322266 100.675567,0 101.692592,0 Z" id="pinterest"></path>
        </g>
    </g>
</svg>