<?xml version="1.0" encoding="UTF-8"?>
<svg width="20px" height="17px" viewBox="0 0 20 17" version="1.1" xmlns="http://www.w3.org/2000/svg" xmlns:xlink="http://www.w3.org/1999/xlink">
    <!-- Generator: Sketch 42 (36781) - http://www.bohemiancoding.com/sketch -->
    <title>twitter</title>
    <desc>Created with Sketch.</desc>
    <defs></defs>
    <g id="Page-1" stroke="none" stroke-width="1" fill="none" fill-rule="evenodd">
        <g id="Group" transform="translate(-43.000000, -1.000000)" fill="#191E22">
            <path d="M62.6785714,3.49657012 C62.151225,4.30323066 61.4951909,4.99555097 60.7104492,5.57355183 L60.7104492,6.09756098 C60.7104492,6.98679306 60.5990176,7.88077549 60.3761509,8.77953506 C60.1532843,9.67829464 59.8331145,10.5516345 59.415632,11.3995808 C58.9981494,12.2475271 58.4629636,13.0398845 57.8100586,13.7766768 C57.1571535,14.5134691 56.4257853,15.1565648 55.6159319,15.7059832 C54.8060785,16.2554016 53.87225,16.6888958 52.8144182,17.0064787 C51.7565865,17.3240615 50.6407006,17.4828506 49.4667271,17.4828506 C47.0873904,17.4828506 45.0627874,16.939792 43.3928571,15.8536585 C43.6816421,15.8981201 43.995534,15.9203506 44.3345424,15.9203506 C45.2134531,15.9203506 46.073517,15.7488584 46.91476,15.4058689 C47.7560031,15.0628794 48.5313162,14.6023911 49.2407227,14.0243902 C48.3932017,14.0180386 47.6288748,13.7528609 46.947719,13.2288491 C46.2665633,12.7048373 45.8035727,12.0426869 45.5587333,11.242378 C45.8224065,11.2931913 46.0672422,11.3185976 46.2932478,11.3185976 C46.6573679,11.3185976 47.0089269,11.2709608 47.3479353,11.175686 C46.437635,10.9914879 45.6811554,10.5325875 45.0784738,9.79897104 C44.4757922,9.06535456 44.1744559,8.21583308 44.1744559,7.2503811 L44.1744559,7.2027439 C44.7394699,7.51397513 45.3358646,7.67911576 45.9636579,7.69817073 C45.4174777,7.32977458 44.9858763,6.85340739 44.6688407,6.26905488 C44.3518051,5.68470236 44.1932896,5.05589768 44.1932896,4.38262195 C44.1932896,3.7284012 44.372208,3.08054183 44.7300502,2.43902439 C45.7219637,3.65854268 46.9210309,4.62556807 48.3272879,5.34012957 C49.733545,6.05469107 51.2496431,6.4564274 52.8756278,6.54535061 C52.8191264,6.29763596 52.7908761,5.98958518 52.7908761,5.62118902 C52.7908761,4.51600057 53.1753938,3.57438143 53.9444406,2.79630335 C54.7134874,2.01822528 55.644177,1.62919207 56.7365374,1.62919207 C57.8602874,1.62919207 58.8302136,2.0483952 59.6463449,2.88681402 C60.5440893,2.70261595 61.375903,2.37868626 62.1418108,1.91501524 C61.84047,2.88046723 61.2597699,3.62042426 60.3996931,4.13490854 C61.1844347,4.04598533 61.9440532,3.83320798 62.6785714,3.49657012 Z" id="twitter"></path>
        </g>
    </g>
</svg>