<?xml version="1.0" encoding="UTF-8"?>
<svg width="20px" height="15px" viewBox="0 0 20 15" version="1.1" xmlns="http://www.w3.org/2000/svg" xmlns:xlink="http://www.w3.org/1999/xlink">
    <!-- Generator: Sketch 42 (36781) - http://www.bohemiancoding.com/sketch -->
    <title>youtube</title>
    <desc>Created with Sketch.</desc>
    <defs></defs>
    <g id="Page-1" stroke="none" stroke-width="1" fill="none" fill-rule="evenodd">
        <g id="Group" transform="translate(-19.000000, -2.000000)" fill="#191E22">
            <path d="M28.9285714,2.84870427 C31.8415324,2.84870427 33.7562733,2.88998942 34.6728516,2.97256098 C35.9974955,3.08689082 36.9266156,3.35683222 37.46024,3.78239329 C37.9561967,4.17619607 38.2763665,4.82723123 38.4207589,5.73551829 C38.5212059,6.38338739 38.5714286,7.62829364 38.5714286,9.47027439 L38.5714286,9.75609756 C38.5714286,11.6679466 38.5306226,12.9414348 38.4490095,13.5766006 C38.3171729,14.5420526 38.0189755,15.2311971 37.5544085,15.6440549 C37.0584518,16.0950226 36.1858321,16.3840187 34.9365234,16.5110518 C34.0073893,16.6126784 32.1365933,16.6634909 29.3240792,16.6634909 L28.9285714,16.6634909 C26.0156104,16.6634909 24.1008695,16.6222057 23.1842913,16.5396341 C21.8596474,16.4253043 20.9305272,16.1553629 20.3969029,15.7298018 C19.9009462,15.335999 19.5807764,14.6849639 19.4363839,13.7766768 C19.335937,13.1288077 19.2857143,11.8839015 19.2857143,10.0419207 L19.2857143,9.75609756 C19.2857143,7.84424857 19.3265202,6.57076029 19.4081334,5.93559451 C19.53997,4.97014253 19.8381673,4.280998 20.3027344,3.86814024 C20.7986911,3.41717254 21.6713107,3.12817645 22.9206194,3.00114329 C23.8497535,2.89951677 25.7205496,2.84870427 28.5330636,2.84870427 L28.9285714,2.84870427 Z M26.5178571,13.4146341 L32.5446429,9.75609756 L26.5178571,6.09756098 L26.5178571,13.4146341 Z" id="youtube"></path>
        </g>
    </g>
</svg>